<?xml version="1.0" standalone="no"?>
<!DOCTYPE svg PUBLIC "-//W3C//DTD SVG 20010904//EN"
 "http://www.w3.org/TR/2001/REC-SVG-20010904/DTD/svg10.dtd">
<svg version="1.0" xmlns="http://www.w3.org/2000/svg"
 width="450.000000pt" height="450.000000pt" viewBox="0 0 450.000000 450.000000"
 preserveAspectRatio="xMidYMid meet">

<g transform="translate(0.000000,450.000000) scale(0.100000,-0.100000)"
fill="#000000" stroke="none">
<path d="M1735 3509 c11 -7 55 -39 98 -72 42 -33 79 -58 81 -56 6 6 -158 128
-181 135 -15 4 -14 3 2 -7z"/>
<path d="M1531 3384 c0 -11 3 -14 6 -6 3 7 2 16 -1 19 -3 4 -6 -2 -5 -13z"/>
<path d="M1074 3155 c0 -110 2 -156 3 -103 2 53 2 143 0 200 -1 57 -3 13 -3
-97z"/>
<path d="M1780 2797 c0 -31 35 -37 202 -35 l163 2 -168 6 c-152 4 -170 7 -183
24 -12 17 -14 17 -14 3z"/>
<path d="M1777 2663 c4 -10 11 -21 17 -25 6 -4 88 -7 181 -6 l170 2 -168 6
c-145 4 -170 7 -181 23 -7 9 -16 17 -19 17 -4 0 -3 -8 0 -17z"/>
<path d="M1500 2500 c-14 -4 -79 -6 -145 -3 -66 2 -156 0 -200 -5 -69 -8 -50
-10 142 -11 167 -1 223 -4 226 -13 3 -8 6 -6 6 4 1 24 24 28 196 31 l150 3
-175 1 c-96 0 -186 -3 -200 -7z"/>
<path d="M1920 2488 c0 -5 66 -7 148 -7 81 1 140 3 132 5 -32 7 -280 9 -280 2z"/>
<path d="M2320 1889 c-4 -438 -7 -508 -21 -529 l-16 -24 -515 3 c-466 2 -522
4 -575 21 l-58 18 -3 -34 c-3 -29 -7 -34 -38 -40 -33 -6 -34 -8 -20 -23 15
-14 71 -16 574 -13 376 2 567 7 589 14 25 9 36 8 55 -4 16 -10 46 -14 98 -13
41 0 294 2 561 3 464 2 488 3 510 21 50 41 29 43 -503 48 -491 5 -504 5 -545
26 -27 14 -47 33 -55 52 -8 20 -15 183 -23 505 l-11 475 -4 -506z"/>
<path d="M1532 2253 c-1 -51 1 -93 6 -93 4 0 18 10 32 21 l25 21 -27 -16 -27
-16 -4 88 -3 87 -2 -92z"/>
<path d="M1720 2300 c0 -5 5 -10 11 -10 6 0 49 -30 95 -66 47 -36 89 -64 95
-62 12 4 -175 148 -191 148 -6 0 -10 -4 -10 -10z"/>
<path d="M2940 2300 c0 -5 4 -10 10 -10 5 0 48 -30 95 -66 47 -37 88 -64 91
-61 5 5 -177 147 -189 147 -4 0 -7 -4 -7 -10z"/>
<path d="M2741 2233 c-1 -40 3 -73 7 -73 5 0 7 28 4 63 -5 89 -10 94 -11 10z"/>
<path d="M1067 1948 c-5 -117 -3 -186 3 -192 7 -7 10 54 10 182 0 106 -2 192
-3 192 -2 0 -7 -82 -10 -182z"/>
<path d="M760 1815 c0 -8 -9 -20 -20 -27 -11 -7 -20 -22 -20 -33 0 -28 49
-104 90 -138 31 -27 58 -31 53 -8 -2 6 -9 52 -18 102 -8 50 -20 97 -26 105
-16 19 -59 18 -59 -1z"/>
<path d="M3678 1700 c-17 -72 -34 -181 -28 -185 9 -6 50 24 50 37 0 5 -7 8
-15 5 -8 -4 -17 -2 -20 3 -4 6 -1 10 4 10 6 0 10 3 9 8 0 4 2 14 6 23 4 9 6
41 4 70 -2 39 -5 47 -10 29z"/>
<path d="M1770 1586 c0 -34 31 -41 191 -44 99 -2 164 0 176 7 13 8 -27 10
-149 11 -154 0 -170 2 -188 20 -24 24 -30 25 -30 6z"/>
<path d="M2992 1585 c6 -37 44 -45 210 -45 94 0 159 4 163 10 4 7 -53 10 -164
10 -164 0 -171 1 -192 23 -20 20 -21 21 -17 2z"/>
<path d="M640 1576 c0 -2 7 -6 15 -10 8 -3 15 -1 15 4 0 6 -7 10 -15 10 -8 0
-15 -2 -15 -4z"/>
<path d="M682 1569 c2 -7 12 -21 22 -30 18 -15 14 -16 -70 -24 -129 -12 -184
-10 -195 6 -6 10 -9 6 -9 -13 0 -16 11 -40 28 -58 32 -35 42 -36 260 -24 161
8 174 15 126 66 -44 46 -168 105 -162 77z"/>
<path d="M1770 1455 c0 -14 8 -29 19 -35 26 -13 348 -14 356 0 4 7 -50 10
-155 10 -161 0 -200 7 -200 35 0 8 -4 15 -10 15 -5 0 -10 -11 -10 -25z"/>
<path d="M2990 1463 c0 -48 19 -53 200 -53 102 0 171 4 175 10 4 7 -52 10
-162 10 -92 0 -173 4 -179 8 -6 4 -16 16 -22 27 -11 20 -11 20 -12 -2z"/>
<path d="M3656 1401 c-40 -44 -27 -48 189 -55 141 -5 164 -4 185 11 25 17 24
17 -50 29 -41 7 -116 13 -167 13 -50 1 -103 5 -116 10 -20 8 -29 6 -41 -8z"/>
<path d="M1027 1253 c-3 -5 -57 -8 -121 -7 -93 0 -116 -2 -116 -13 0 -8 -4
-11 -10 -8 -5 3 -10 -2 -11 -12 -1 -10 -3 -48 -5 -84 -3 -56 -1 -70 17 -93 20
-25 25 -26 115 -26 91 0 94 -1 84 -19 -16 -32 -13 -183 6 -209 14 -20 23 -22
124 -22 103 0 110 1 124 23 20 29 24 190 6 212 -11 13 40 15 440 15 427 0 452
-1 444 -17 -11 -25 -17 -129 -10 -169 11 -57 25 -64 139 -64 109 0 118 3 136
37 14 27 15 168 1 194 -11 19 -2 19 442 19 351 0 449 -3 440 -12 -19 -19 -16
-188 4 -216 14 -20 23 -22 124 -22 101 0 110 2 124 22 20 28 23 197 4 216 -9
9 9 12 84 12 125 0 129 4 126 113 0 45 -3 67 -5 50 l-4 -33 -37 29 c-34 28
-44 30 -126 32 -48 1 -91 -2 -95 -7 -10 -14 -32 -16 -48 -3 -9 8 -79 13 -221
15 -114 2 -373 5 -577 8 -203 3 -482 8 -620 11 -137 2 -407 7 -599 10 -218 3
-354 9 -362 16 -7 5 -14 6 -17 2z"/>
</g>
</svg>
